<?xml version="1.0" encoding="utf-8"?>
<svg viewBox="-1.8733 -1.1384 501.2141 271.2267" width="501.214" height="271.227" xmlns="http://www.w3.org/2000/svg">
  <g transform="matrix(4.618199825286865, 0, 0, 3.0777130126953125, 248.91337585449216, 134.54574584960938)" style="">
    <path style="stroke: none; stroke-width: 1; stroke-dasharray: none; stroke-linecap: butt; stroke-dashoffset: 0; stroke-linejoin: miter; stroke-miterlimit: 4; fill: rgb(184,197,204); fill-rule: nonzero; opacity: 1;" vector-effect="non-scaling-stroke" transform=" translate(-75, -44.03)" d="M 50.667 0 L 50.667 88.07 L 48.667 88.07 L 48.667 0 L 50.667 0 Z" stroke-linecap="round"/>
    <path style="stroke: none; stroke-width: 1; stroke-dasharray: none; stroke-linecap: butt; stroke-dashoffset: 0; stroke-linejoin: miter; stroke-miterlimit: 4; fill: rgb(184,197,204); fill-rule: nonzero; opacity: 1;" vector-effect="non-scaling-stroke" transform=" translate(-75, -44.03)" d="M 101.333 0 L 101.333 88.07 L 99.333 88.07 L 99.333 0 L 101.333 0 Z" stroke-linecap="round"/>
  </g>
  <g transform="matrix(1.9649789333343506, 0, 0, 4.094374179840088, 63.13806915283203, 134.3239288330078)" id="444a2b18-38fe-4ddd-92d1-0a38215dc3b8" style="">
    <rect style="stroke: rgb(0,0,0); stroke-width: 0; stroke-dasharray: none; stroke-linecap: butt; stroke-dashoffset: 0; stroke-linejoin: miter; stroke-miterlimit: 4; fill: rgb(238,238,238); fill-rule: nonzero; opacity: 1;" vector-effect="non-scaling-stroke" x="-33.085" y="-33.085" rx="0" ry="0" width="66.17" height="66.17"/>
  </g>
  <g transform="matrix(1.9649789333343506, 0, 0, 4.066647052764893, 434.3295593261719, 134.8415069580078)" id="444a2b18-38fe-4ddd-92d1-0a38215dc3b8" style="">
    <rect style="stroke: rgb(0,0,0); stroke-width: 0; stroke-dasharray: none; stroke-linecap: butt; stroke-dashoffset: 0; stroke-linejoin: miter; stroke-miterlimit: 4; fill: rgb(238,238,238); fill-rule: nonzero; opacity: 1;" vector-effect="non-scaling-stroke" x="-33.085" y="-33.085" rx="0" ry="0" width="66.17" height="66.17"/>
  </g>
  <g transform="matrix(3.4212570190429688, 0, 0, 4.066647052764893, 248.32489013671872, 134.37937927246094)" id="31dcc3f5-34c8-4f0c-87cf-deac4cd4578b" style="">
    <rect style="stroke: rgb(0,0,0); stroke-width: 0; stroke-dasharray: none; stroke-linecap: butt; stroke-dashoffset: 0; stroke-linejoin: miter; stroke-miterlimit: 4; fill: rgb(238,238,238); fill-rule: nonzero; opacity: 1;" vector-effect="non-scaling-stroke" x="-33.085" y="-33.085" rx="0" ry="0" width="66.17" height="66.17"/>
  </g>
  <g transform="matrix(3.32151198387146, 0, 0, 3.0777130126953125, 247.56681823730466, 134.49029541015625)" style="">
    <path style="stroke: none; stroke-width: 1; stroke-dasharray: none; stroke-linecap: butt; stroke-dashoffset: 0; stroke-linejoin: miter; stroke-miterlimit: 4; fill: rgb(144,165,175); fill-rule: nonzero; opacity: 1;" vector-effect="non-scaling-stroke" transform=" translate(-75.13, -43.25)" d="M 21.634 40.447 C 21.915562528714215 40.44750927923684 22.196631210472653 40.42341767794326 22.474 40.375 C 22.730224644586507 40.33205442755806 22.97861921777874 40.25116609978854 23.211 40.135 C 23.424917311548366 40.028426179887525 23.6163830776878 39.88177155050413 23.775 39.702999999999996 C 23.935384904835992 39.519609378542796 24.041669889787563 39.29526843310755 24.081999999999997 39.05499999999999 L 25.2 39.05499999999999 L 25.2 47.45499999999999 L 23.7 47.45499999999999 L 23.7 41.526999999999994 L 21.634 41.526999999999994 L 21.634 40.447 Z" stroke-linecap="round"/>
    <path style="stroke: none; stroke-width: 1; stroke-dasharray: none; stroke-linecap: butt; stroke-dashoffset: 0; stroke-linejoin: miter; stroke-miterlimit: 4; fill: rgb(144,165,175); fill-rule: nonzero; opacity: 1;" vector-effect="non-scaling-stroke" transform=" translate(-75.13, -43.25)" d="M 125.067 42.535 C 125.29206923757711 42.54292368464545 125.51734193828696 42.526832777451894 125.73899999999999 42.486999999999995 C 125.94951936765297 42.45175618608931 126.15245085536483 42.38073016539016 126.33899999999998 42.276999999999994 C 126.51416964324447 42.177837239374085 126.6608738799509 42.03526551637769 126.76499999999999 41.86299999999999 C 126.87837838862012 41.666336138888674 126.93449205531832 41.44188147209592 126.92699999999999 41.21499999999999 C 126.94011463178089 40.886800311276275 126.80587703280247 40.569911553032135 126.56099999999999 40.35099999999999 C 126.29887880431691 40.12844951096997 125.9625605310275 40.012773162195266 125.619 40.026999999999994 C 125.19710853666783 40.01229130968444 124.79680186946746 40.213575453078974 124.557 40.56099999999999 C 124.43936454811387 40.72848691354542 124.35203965342235 40.91532157195518 124.299 41.11299999999999 C 124.24288079846285 41.318074052085336 124.21859759865067 41.53055205044191 124.227 41.742999999999995 L 122.85900000000001 41.742999999999995 C 122.87096293780839 41.354899535658895 122.94803534372292 40.971565727294475 123.087 40.608999999999995 C 123.2145393103095 40.27468015142961 123.4038308124818 39.967335884461704 123.64500000000001 39.702999999999996 C 123.88500263321464 39.44417422114452 124.17753102598687 39.23960891151359 124.50300000000001 39.102999999999994 C 124.86431488508117 38.954082463599306 125.25225245592242 38.880578502808326 125.64300000000001 38.88699999999999 C 125.97035344372078 38.88690959041408 126.29590514602323 38.935439036720034 126.60900000000001 39.03099999999999 C 126.91467731479115 39.1218892008007 127.20275168189875 39.26389769162839 127.46100000000001 39.45099999999999 C 127.99803064260134 39.84005240522355 128.30977056222963 40.468017710949646 128.29500000000002 41.13099999999999 C 128.3038391151481 41.520553671787546 128.20412082470338 41.904884582876605 128.007 42.24099999999999 C 127.79814067094442 42.5702890585944 127.47922233165843 42.81479311871365 127.107 42.93099999999999 L 127.107 42.95499999999999 C 127.56103161970735 43.03441782567837 127.96476104839178 43.291336553023 128.229 43.66899999999999 C 128.700096782011 44.407351777008635 128.76120198638262 45.3352456211703 128.39100000000002 46.12899999999999 C 128.23440828888863 46.43875259717297 128.0134832546157 46.71149955306547 127.74300000000002 46.92899999999999 C 127.4603343732601 47.15476771158999 127.13916497207269 47.3275487185579 126.79500000000003 47.438999999999986 C 126.00669638215886 47.68895337159452 125.15885960200448 47.67843430484323 124.37700000000002 47.408999999999985 C 124.0324015277956 47.281698804380774 123.72074989390948 47.07871517441548 123.46500000000002 46.81499999999998 C 123.21556487661687 46.55006645782807 123.02535369621377 46.23509310533264 122.90700000000001 45.890999999999984 C 122.77580877196974 45.50446507891136 122.70826286681093 45.0991896479585 122.70700000000001 44.69099999999998 L 124.075 44.69099999999998 C 124.0425603450577 45.1486666776351 124.17682625949608 45.602613340736276 124.453 45.96899999999998 C 124.75019247600027 46.32223891561389 125.19854076911118 46.511838940063775 125.659 46.47899999999998 C 126.07569285901214 46.492530171921906 126.48305997416908 46.35389738404127 126.805 46.08899999999998 C 127.12155102522503 45.80976888213996 127.29194977491497 45.40036928872907 127.26700000000001 44.97899999999998 C 127.28121901663181 44.7057645861094 127.21442533762644 44.434415265150065 127.07500000000002 44.19899999999998 C 126.95122385148782 44.010283675206985 126.77836606574314 43.85886025489464 126.57500000000002 43.760999999999974 C 126.35462901336317 43.65774291816957 126.1175599373747 43.59475027797835 125.87500000000001 43.574999999999974 C 125.60906826498055 43.55075952428174 125.34190660905291 43.5427446746039 125.07500000000002 43.55099999999997 L 125.067 42.535 Z" stroke-linecap="round"/>
    <path style="stroke: none; stroke-width: 1; stroke-dasharray: none; stroke-linecap: butt; stroke-dashoffset: 0; stroke-linejoin: miter; stroke-miterlimit: 4; fill: rgb(144,165,175); fill-rule: nonzero; opacity: 1;" vector-effect="non-scaling-stroke" transform=" translate(-75.13, -43.25)" d="M 77.868 47.455 L 72.13199999999999 47.455 C 72.12400448269946 46.81210140712289 72.29729016458339 46.17995523961035 72.63199999999999 45.631 C 72.98049275595282 45.09018588820147 73.43830490547326 44.62828613020317 73.97599999999998 44.275 C 74.24799999999999 44.075 74.53199999999998 43.881 74.82799999999999 43.693 C 75.11485002810353 43.51180438632277 75.38762383238458 43.30922972284935 75.64399999999999 43.086999999999996 C 75.88071233964482 42.884423882697384 76.0868503009461 42.64864516879068 76.25599999999999 42.38699999999999 C 76.41873363150933 42.12583751694174 76.5059574984796 41.824707500020565 76.50799999999998 41.516999999999996 C 76.50675529936815 41.35357438737776 76.48865957288601 41.190712849038434 76.45399999999998 41.031 C 76.41767964259749 40.85828479859037 76.34619636437192 40.69489444836049 76.24399999999999 40.551 C 76.13090040522768 40.39508127193066 75.98297871745656 40.26770426301664 75.81199999999998 40.179 C 75.58816618318366 40.070026358745984 75.34072896333902 40.01847693794501 75.09199999999998 40.029 C 74.855466360142 40.02027036471963 74.62103784185872 40.076284258468725 74.41399999999999 40.191 C 74.23394073946439 40.29904256037031 74.08506981418662 40.452048789128014 73.98199999999999 40.635000000000005 C 73.8668118499583 40.84269746906757 73.78577712583312 41.067568828514936 73.74199999999999 41.301 C 73.68814088881868 41.573882429157386 73.65802826526495 41.850918565851714 73.65199999999999 42.129000000000005 L 72.28799999999998 42.129000000000005 C 72.28409429051815 41.69204704733524 72.34681458710195 41.25705144199605 72.47399999999999 40.839000000000006 C 72.58747287257299 40.462269765207125 72.7774302334178 40.11299332752473 73.032 39.813 C 73.28129207101416 39.52400783852708 73.59043057186284 39.292665781600604 73.938 39.135000000000005 C 74.74804789049948 38.80485104208283 75.65552964483835 38.80700658069171 76.464 39.141000000000005 C 76.78434034622197 39.29082469270793 77.06875675806127 39.50771778375085 77.298 39.77700000000001 C 77.50364205359351 40.021174235083784 77.65682068325664 40.30506529539279 77.748 40.61100000000001 C 77.83271076813297 40.88923730351909 77.87716148531185 41.17816696518173 77.88000000000001 41.46900000000001 C 77.88436555188393 41.77999412079311 77.8314856235661 42.08913831711283 77.724 42.38100000000001 C 77.6215402993196 42.650245315916386 77.48002498118097 42.902951241163954 77.304 43.13100000000001 C 77.12610404191429 43.36099458019042 76.92504841031919 43.57210299336528 76.70400000000001 43.76100000000001 C 76.48 43.95300000000001 76.24666666666667 44.13300000000001 76.004 44.30100000000001 C 75.76133333333334 44.46900000000001 75.52133333333333 44.62900000000001 75.284 44.781000000000006 C 75.04400000000001 44.93300000000001 74.822 45.08500000000001 74.61800000000001 45.23700000000001 C 74.42591928381363 45.37838689251152 74.2471745576677 45.53704794156239 74.084 45.711000000000006 C 73.9415397398022 45.85891984412885 73.83481607941356 46.03747673747137 73.772 46.233000000000004 L 77.864 46.233000000000004 L 77.868 47.455 Z" stroke-linecap="round"/>
  </g>
</svg>